<?xml version="1.0" encoding="utf-8"?>
<!-- Generator: Adobe Illustrator 24.1.3, SVG Export Plug-In . SVG Version: 6.00 Build 0)  -->
<svg version="1.1"
	 id="svg5" xmlns:inkscape="http://www.inkscape.org/namespaces/inkscape" xmlns:sodipodi="http://sodipodi.sourceforge.net/DTD/sodipodi-0.dtd" xmlns:svg="http://www.w3.org/2000/svg"
	 xmlns="http://www.w3.org/2000/svg" xmlns:xlink="http://www.w3.org/1999/xlink" x="0px" y="0px" viewBox="0 0 500 500"
	 style="enable-background:new 0 0 500 500;" xml:space="preserve">
<style type="text/css">
	.st0{fill:#F6DEC5;}
	.st1{fill:none;stroke:#FFFFFE;stroke-width:1.6987;stroke-miterlimit:3;}
	.st2{fill:#093020;}
	.st3{fill:none;stroke:#FFFFFE;stroke-width:3.1911;stroke-miterlimit:3;}
</style>
<ellipse class="st0" cx="250" cy="250" rx="243.5" ry="244.2"/>
<sodipodi:namedview  bordercolor="#666666" borderopacity="1.0" id="namedview7" inkscape:current-layer="layer1" inkscape:cx="362.5" inkscape:cy="566.5" inkscape:document-units="mm" inkscape:pagecheckerboard="0" inkscape:pageopacity="0.0" inkscape:pageshadow="2" inkscape:window-height="1049" inkscape:window-maximized="1" inkscape:window-width="1920" inkscape:window-x="1920" inkscape:window-y="0" inkscape:zoom="1" pagecolor="#ffffff" showgrid="false">
	</sodipodi:namedview>
<path id="path3775" class="st1" d="M-47.6-170.9"/>
<path class="st2" d="M301.2,134.5c-0.3-1.6-0.9-3-1.3-3c-0.4,0-1.9,1.3-3.3,2.8c-3.3,3.4-17.6,13.6-27.6,19.6
	c-4.8,2.9-13.4,6.6-24.2,10.4c-42.2,15.1-58.4,21.8-62.8,25.9l-2.1,1.9V190c0-4.5,8.2-31.7,11.4-37.8c5.3-10.1,9.4-13,31.9-22.4
	c13.4-5.6,20.3-9.4,27.2-14.8c6.2-4.9,9.2-9.8,13-21.2c5.4-16,8.6-38.8,5.4-38.8c-3.1,0-31.6,26.5-45.4,42.3
	c-8.2,9.3-15.9,20.8-17.4,25.9c-1.7,5.9-2.4,3.8-1.5-4.9c1.1-10.5,0.2-35.2-1.5-42.8c-1.8-7.9-5.5-17.2-9.5-23.5
	c-2.8-4.4-18-21-18.6-20.4c-1,1.1-3.3,8.2-4.6,14.4c-1.3,6-1.6,11.6-1.6,27.8c0,20.9,0.8,28.3,4.2,39.4c2.1,6.7,4.7,10,11.8,14.8
	c2.9,2,5.6,4.2,5.8,4.9c0.3,0.7-1,4.6-2.7,8.7c-1.8,4.1-5.5,15.2-8.2,24.6c-2.8,9.4-7.7,25.3-10.9,35.4c-3.2,10.1-6.6,21.7-7.5,25.9
	l-0.6,2.7c-12.9-0.3-23.1-0.6-26.6-0.8c-12.9-0.8-41.9-3.7-43.5-4.2c-0.2-0.1-0.3-0.1-0.5,0l0,0c-0.4,0.1-0.8,0.6-1,1.4
	c-0.9,3.4-1.2,44.7-0.4,53c0.2,2,0.4,3.9,0.6,5.9c-0.6,19.7-1.9,45.6,7.4,61.5c3.2,5.5,22.2,13.1,37.1,14.8
	c-6.1,12.3-6.3,24.6-0.6,34.3c1.6,2.7,3.6,5,5.9,7c-5.1,7.6-10,15.3-14.8,22.7c0,0-0.1,0-0.1,0c-3.9,0-8-2.5-12-4.9
	c-1.4-0.8-2.8-1.7-4.2-2.5l-2.7,5.1c1.3,0.7,2.6,1.5,4,2.3c4.5,2.7,9.5,5.8,15,5.8c0.7,0,1.5-0.1,2.2-0.2l1.3-0.2l0.7-1.1
	c5-7.7,10.2-15.8,15.5-23.7c4.2,2.3,9,3.6,14,3.6c0.3,0,0.6,0,1,0c12.1-0.4,23.2-8.1,30.8-21.3c1.2,0.9,2.4,1.9,3.7,2.9
	c2,1.7,4.1,3.4,6.5,4.8l3-5c-2-1.2-3.9-2.7-5.8-4.3c-2.1-1.8-4.4-3.6-6.9-5.1l-2.6-1.5l-1.4,2.7c-6.6,13-16.5,20.6-27.3,20.9
	c-4.1,0.1-8.1-0.8-11.5-2.7c8.9-13.2,18-26.1,26.7-37.1c4.5,0,9.5-0.6,15.4-1.5c25.4-3.7,39.3-14.9,46.8-29.5
	c-2.9-12.9-4.4-30.6-0.4-45.1c0,0-0.1,0-0.1,0l1.4-2.7c3.5-0.1,7-0.2,10.6-0.2c2.3-11.1,3.5-23.7,3.9-38.3l0.4-14.5l-4.7-0.5
	c-2.6-0.3-26.5-0.8-53.2-1.2c-9.4-0.1-18.8-0.3-27.4-0.5c0-0.1,0-0.2,0.1-0.3c3.3-16.7,5.6-21.1,11.7-22.8c3.9-1,6-0.8,18.7,2
	c6.6,1.5,10.2,1.8,16.7,1.3c20.7-1.3,44.1-11.5,59.2-25.6C287.1,171.6,302.9,143.5,301.2,134.5z M191.7,270.7c4-2.1,8.4-2,12,0.4
	c5.7,3.6,8.6,11.8,8,22.5l-5.8-0.3c0.5-8.4-1.5-14.8-5.3-17.3c-1.9-1.2-4.1-1.2-6.2-0.1c-3.5,1.9-7.3,7.3-7.5,17.2l-5.8-0.1
	C181.4,282.4,185.3,274.1,191.7,270.7z M150.9,317.2c1.3-1.8,3-4.1,6.2-4.1c3.2,0,4.9,2.3,6.2,4.1c4,5.4,3.2,16.6,0.8,21.6
	c-2.1,4.3-5.5,4.7-6.9,4.7c-3,0-5.5-2.2-7.4-6.6C147.4,331.3,147.1,322.4,150.9,317.2z M133.2,273.8c-1.9-1.2-4.1-1.2-6.2-0.1
	c-3.5,1.9-7.3,7.3-7.5,17.2l-5.8-0.1c0.2-10.5,4.2-18.7,10.6-22.1c4-2.1,8.4-2,12,0.4c5.7,3.6,8.6,11.8,8,22.5l-5.8-0.3
	C139,282.7,137,276.2,133.2,273.8z M166.8,363.7c-8,10.4-16.4,22.2-24.5,34.3c-1.6-1.5-3-3.2-4.2-5.1c-5.1-8.5-4.3-19.8,1.9-31
	c1.4,0.4,2.9,0.8,4.6,1.2c2.3,0.6,12.4,0.5,19.6,0C165.1,363.3,165.9,363.5,166.8,363.7z"/>
<path id="path5151" class="st3" d="M-47.6-170.9"/>
<path id="path5190" class="st3" d="M-47.6-170.9"/>
<path id="path5229" class="st3" d="M-47.6-170.9"/>
<path id="path5268" class="st3" d="M-47.6-170.9"/>
<path id="path5307" class="st3" d="M-47.6-170.9"/>
<path id="path5892" class="st3" d="M-47.6-170.9"/>
<path id="path5931" class="st3" d="M-47.6-170.9"/>
<path class="st2" d="M416.1,262.2L416.1,262.2l-9.9-5.6c0.9-1.8,1.3-3.8,1.2-6c-0.3-9.5-6-14.6-13.4-17.3c2.7-3.4,5.4-6.5,8.1-9.3
	l-2.3-2.2c-3.1,3.2-6.1,6.7-9.1,10.6c-4.6-1.2-9.6-1.5-14.1-1.5c-2.5,0-7.5,0.1-10.8,0.5c4.5-4.9,13-18.4,13.1-18.4
	c1.3-2.3,2.5-4.7,3.5-7.1l13.6,0.8l0.2-3.2l-12.5-0.7c3.2-8.5,4.5-17,4.1-24.7l11.2,0.5l0.5-3.2l-12-0.6c-1.3-10-5.9-18.2-13.8-21.9
	l9.4-13.7l-2.7-1.8l-9.8,14.3c-7.7-2.3-17.9-0.8-30.5,6.1c-1.4,0.7-2.7,1.5-4,2.3c-2.6-2.8-4.9-7-6-9.4l-2.9,1.3
	c0.4,0.8,2.8,5.9,6.2,9.8c-6.8,4.6-12.6,10.1-17.2,17.2c-0.1,0.2-0.2,0.4-0.4,0.6l-12.2-7.7l-1.7,2.7l12.2,7.7
	c-4.3,7.3-7.6,15.3-10.6,23.4l-9.3-3.5l-1.1,3l9.4,3.5c-1.7,4.8-3.2,9.6-4.6,14.3c-1,3.1-1.9,6.2-2.8,9.3l-14.5-2.9l-0.6,3.2
	l14.3,2.9c-2.6,9.4-4.9,19.1-6.3,28.8c-3.4,0.4-6.8,0.5-10.1,0l-0.5,3.2c1.7,0.3,3.4,0.4,5.1,0.4c1.7,0,3.4-0.1,5.1-0.3
	c-0.9,7.1-1.3,14.2-1,21.3c-1.6,0-2.8-0.1-3.7-0.1c-1.7-0.1-3.6-0.2-5.7-0.3c-0.6,0-1.2,0-1.8,0c-4.6,0-9.3-0.1-14.3-0.2
	c-4.7-0.1-9.5-0.2-14.2-0.2c-2.7,0-5.3,0-7.9,0.1c-2.6,8.8-3.9,23.4-0.8,40.1c0.4,2,0.8,4,1.3,6.1c6.1,19.2,19.1,32.1,38.5,38.1
	c2.4,0.8,4.6,1.3,7.2,1.9c-12.1,16.5-24.6,35.5-35.9,53c0,0-0.1,0-0.1,0c-3.9,0-8-2.5-12-4.9c-1.4-0.8-2.8-1.7-4.2-2.5l-2.7,5.1
	c1.3,0.7,2.6,1.5,4,2.3c4.5,2.7,9.5,5.8,15,5.8c0.7,0,1.5-0.1,2.2-0.2l1.3-0.2l0.7-1.1c11.9-18.6,25.3-39,38.1-56.2
	c0.7,0.1,1.5,0.2,2.3,0.4c3.1,0.5,19.3,0.2,25.6-0.4c2.1-0.2,4.3-0.5,6.4-0.8c-0.1,5.9,1.2,11.5,4.1,16.4c5.1,8.7,14.5,14,24.6,14
	c0.3,0,0.6,0,1,0c12.1-0.4,23.2-8.1,30.8-21.3c1.2,0.9,2.4,1.9,3.7,2.9c2,1.7,4.1,3.4,6.5,4.8l3-5c-2-1.2-3.9-2.7-5.8-4.3
	c-2.2-1.8-4.4-3.6-6.9-5.1l-2.6-1.5l-1.4,2.7c-6.6,13-16.5,20.6-27.3,20.9c-8.4,0.3-16.2-4-20.4-11.1c-2.5-4.3-3.6-9.2-3.3-14.5
	c22.4-4.4,43.5-14.1,53.5-25.3c11.4-12.7,16.7-27.1,17.5-48.2l0.4-9.5l-4.8-0.3c-2.6-0.2-27-0.5-54.3-0.8c-1.8,0-3.5,0-5.3-0.1
	c1.3-3,2.8-6.5,4.3-9.9l11.8,1.4l0.4-3.2l-10.8-1.3c3.4-7.4,6.6-13.5,8.3-12.3c10.4,7.6,42,7.3,51.9-5l10.4,6l1.7-2.7L416.1,262.2z
	 M265,325.9c-2.1,4.3-5.5,4.7-6.9,4.7c-3,0-5.5-2.2-7.4-6.6h0c-2.5-5.7-2.8-14.6,1-19.7c1.3-1.8,3-4.1,6.2-4.1
	c3.2,0,4.9,2.3,6.2,4.1C268.2,309.8,267.5,321,265,325.9z M314,355.7c-2.5,1.8-5.3,2.7-8.2,2.7c-2.4,0-4.9-0.7-7.1-2
	c-3.4-2.1-11-8.9-8.2-27.4l5.7,0.8c-1.5,10.5,0.5,18.6,5.5,21.6c2.8,1.7,6.1,1.5,8.9-0.5c4.8-3.4,6.5-10.6,4.6-19.3l5.7-1.2
	C323.3,341.5,320.7,350.9,314,355.7z M351.4,307.5c1.3-1.8,3-4.1,6.2-4.1s4.9,2.3,6.2,4.1c4,5.4,3.2,16.6,0.8,21.6
	c-2.1,4.3-5.5,4.7-6.9,4.7c-3,0-5.5-2.2-7.4-6.6C347.9,321.6,347.6,312.6,351.4,307.5z"/>
<path class="st2" d="M250,11.8c32.2,0,63.4,6.3,92.7,18.7c28.4,12,53.8,29.2,75.7,51c21.9,21.9,39.1,47.4,51,75.7
	c12.4,29.4,18.7,60.5,18.7,92.7s-6.3,63.4-18.7,92.7c-12,28.4-29.2,53.8-51,75.7c-21.9,21.9-47.4,39.1-75.7,51
	c-29.4,12.4-60.5,18.7-92.7,18.7s-63.4-6.3-92.7-18.7c-28.4-12-53.8-29.2-75.7-51c-21.9-21.9-39.1-47.4-51-75.7
	c-12.4-29.4-18.7-60.5-18.7-92.7s6.3-63.4,18.7-92.7c12-28.4,29.2-53.8,51-75.7c21.9-21.9,47.4-39.1,75.7-51
	C186.6,18.1,217.8,11.8,250,11.8 M250,0.8C112.4,0.8,0.8,112.4,0.8,250S112.4,499.2,250,499.2S499.2,387.6,499.2,250
	S387.6,0.8,250,0.8L250,0.8z"/>
<g>
	<path class="st2" d="M89.6,413c-44-43.3-68.3-101.2-68.3-163c0-44,12.5-86.7,36.2-123.6c23.1-35.9,55.6-64.5,93.9-82.9l3,6.3
		c-37.2,17.8-68.7,45.6-91.1,80.4c-23,35.7-35.1,77.1-35.1,119.8c0,59.9,23.5,116,66.2,158L89.6,413z"/>
</g>
<g>
	<path class="st2" d="M250,478.7c-43.3,0-85.5-12.2-122-35.2l3.7-5.9c35.3,22.3,76.2,34.1,118.2,34.1c59.2,0,114.9-23.1,156.8-64.9
		c41.9-41.9,64.9-97.6,64.9-156.8c0-59.2-23.1-114.9-64.9-156.8C364.9,51.4,309.2,28.3,250,28.3c-18.6,0-37.1,2.3-54.9,6.8l-1.7-6.8
		c18.4-4.7,37.5-7.1,56.6-7.1c61.1,0,118.5,23.8,161.7,67s67,100.6,67,161.7s-23.8,118.5-67,161.7
		C368.5,454.9,311.1,478.7,250,478.7z"/>
</g>
</svg>
