<svg width="21" height="21" viewBox="0 0 21 21" fill="none" xmlns="http://www.w3.org/2000/svg">
<circle cx="10.5" cy="10.5" r="10" fill="#F4C829" stroke="#010102"/>
<path d="M10.3122 7.84965L5.77798 11.5841V15.6147C5.77798 15.719 5.81944 15.8191 5.89323 15.8929C5.96703 15.9667 6.06711 16.0081 6.17147 16.0081L8.92737 16.001C9.03138 16.0005 9.13096 15.9588 9.20433 15.8851C9.2777 15.8113 9.31889 15.7115 9.31889 15.6075V13.2537C9.31889 13.1494 9.36034 13.0493 9.43414 12.9755C9.50793 12.9017 9.60802 12.8602 9.71237 12.8602H11.2863C11.3907 12.8602 11.4908 12.9017 11.5646 12.9755C11.6384 13.0493 11.6798 13.1494 11.6798 13.2537V15.6058C11.6797 15.6576 11.6897 15.7089 11.7094 15.7568C11.7291 15.8046 11.7581 15.8482 11.7946 15.8848C11.8312 15.9215 11.8746 15.9506 11.9224 15.9704C11.9703 15.9903 12.0215 16.0005 12.0733 16.0005L14.8282 16.0081C14.9326 16.0081 15.0327 15.9667 15.1065 15.8929C15.1802 15.8191 15.2217 15.719 15.2217 15.6147V11.5814L10.6885 7.84965C10.6352 7.8067 10.5688 7.78327 10.5003 7.78327C10.4319 7.78327 10.3655 7.8067 10.3122 7.84965ZM17.4744 10.3879L15.4184 8.69319V5.28682C15.4184 5.20855 15.3874 5.13348 15.332 5.07814C15.2767 5.02279 15.2016 4.9917 15.1233 4.9917H13.7461C13.6679 4.9917 13.5928 5.02279 13.5374 5.07814C13.4821 5.13348 13.451 5.20855 13.451 5.28682V7.07251L11.2492 5.26099C11.0379 5.08711 10.7727 4.99205 10.4991 4.99205C10.2255 4.99205 9.96032 5.08711 9.74902 5.26099L3.52379 10.3879C3.49391 10.4126 3.46918 10.4429 3.45103 10.4772C3.43288 10.5115 3.42165 10.549 3.418 10.5876C3.41435 10.6262 3.41833 10.6651 3.42973 10.7021C3.44113 10.7392 3.45972 10.7737 3.48444 10.8035L4.11156 11.5659C4.13621 11.5959 4.16653 11.6207 4.20079 11.6389C4.23504 11.6572 4.27255 11.6685 4.31118 11.6722C4.34981 11.6759 4.38879 11.672 4.4259 11.6606C4.46301 11.6493 4.49751 11.6307 4.52743 11.606L10.3122 6.84134C10.3655 6.79838 10.4319 6.77496 10.5003 6.77496C10.5688 6.77496 10.6352 6.79838 10.6885 6.84134L16.4735 11.606C16.5034 11.6307 16.5378 11.6493 16.5749 11.6607C16.6119 11.6721 16.6509 11.6761 16.6895 11.6724C16.728 11.6688 16.7655 11.6576 16.7998 11.6394C16.8341 11.6212 16.8644 11.5965 16.8891 11.5666L17.5162 10.8043C17.5409 10.7742 17.5594 10.7396 17.5707 10.7024C17.582 10.6652 17.5858 10.6261 17.5819 10.5874C17.578 10.5487 17.5665 10.5112 17.5481 10.4769C17.5296 10.4427 17.5046 10.4124 17.4744 10.3879Z" fill="#FF2309"/>
</svg>
