<svg width="26" height="25" viewBox="0 0 26 25" fill="none" xmlns="http://www.w3.org/2000/svg">
<path d="M12.9998 0C6.1248 0 0.499756 5.62504 0.499756 12.5C0.499756 19.375 6.1248 25 12.9998 25C19.8747 25 25.4998 19.375 25.4998 12.5C25.4998 5.62504 19.8747 0 12.9998 0ZM14.665 2.80567C19.3212 3.58962 22.8331 7.60961 22.8331 12.5C22.8331 14.3159 22.3485 16.0115 21.5013 17.4663L14.665 2.80567ZM11.3313 2.80624L4.49661 17.4632C3.65048 16.009 3.16653 14.3144 3.16653 12.4999C3.16653 7.61096 6.67676 3.59159 11.3313 2.80624ZM12.9982 5.5412L16.1653 12.3332H9.83094L12.9982 5.5412ZM8.58747 14.9998H17.4087L19.6358 19.7757C17.8908 21.3667 15.565 22.333 12.9996 22.333C10.4333 22.333 8.10653 21.3658 6.36133 19.7736L8.58747 14.9998Z" fill="#010B0B"/>
</svg>
