<svg width="26" height="25" viewBox="0 0 26 25" fill="none" xmlns="http://www.w3.org/2000/svg">
<path fill-rule="evenodd" clip-rule="evenodd" d="M12.9998 25C19.9033 25 25.4998 19.4036 25.4998 12.5C25.4998 5.59644 19.9033 0 12.9998 0C6.0962 0 0.499756 5.59644 0.499756 12.5C0.499756 19.4036 6.0962 25 12.9998 25ZM10.6602 10.8665L12.9298 9.68641C12.0219 8.05266 10.5199 7.23578 8.4219 7.23684C6.98932 7.23684 5.8045 7.71119 4.86692 8.65883C3.92934 9.607 3.46028 10.8871 3.46028 12.5007C3.46028 14.1541 3.92404 15.4448 4.85157 16.3723C5.77909 17.3009 6.99991 17.7641 8.51242 17.7641C9.46059 17.7641 10.3283 17.5275 11.1139 17.0531C11.9006 16.5793 12.5158 15.9292 12.9595 15.1017L10.8725 14.0429C10.4686 15.0107 9.77294 15.4951 8.78454 15.4951C8.03807 15.4951 7.47319 15.2224 7.0899 14.6777C6.70714 14.1329 6.5155 13.4076 6.5155 12.5002C6.5155 10.5033 7.27255 9.50536 8.78454 9.50536C9.08736 9.50536 9.41506 9.60647 9.76818 9.80765C10.1208 10.0094 10.4178 10.363 10.6602 10.8665ZM20.4622 10.8665L22.7011 9.68641C21.8143 8.05266 20.3209 7.23578 18.2234 7.23684C16.7913 7.23684 15.6065 7.71119 14.6694 8.65883C13.7308 9.607 13.2623 10.8871 13.2623 12.5007C13.2623 14.1541 13.7207 15.4448 14.6398 16.3723C15.5567 17.3009 16.7812 17.7641 18.3144 17.7641C19.2419 17.7641 20.099 17.5275 20.8857 17.0531C21.6714 16.5793 22.2971 15.9292 22.7604 15.1017L20.6427 14.0429C20.2399 15.0107 19.5437 15.4951 18.5564 15.4951C17.8088 15.4951 17.2445 15.2224 16.8617 14.6777C16.479 14.1329 16.2868 13.4076 16.2868 12.5002C16.2868 10.5033 17.0438 9.50536 18.5564 9.50536C18.8777 9.50536 19.216 9.60647 19.5696 9.80765C19.9222 10.0094 20.2203 10.363 20.4622 10.8665Z" fill="#010B0B"/>
</svg>
